<?xml version="1.0"?>
<svg xmlns="http://www.w3.org/2000/svg" id="Layer_3" enable-background="new 0 0 64 64" height="512px" viewBox="0 0 64 64" width="512px" class=""><g><g><g><path d="m57 42h2v12h-2z" fill="#3d98f7" data-original="#3D98F7" class="active-path" data-old_color="#3d98f7" style="fill:#FFFFFF"/></g><path d="m36 32v-30h12v34" fill="#f5b953" data-original="#F5B953" class=""/><path d="m28 12v25h-10v-25l3 3 2-2 2 2z" fill="#e47c6e" data-original="#E47C6E" class="" data-old_color="#e47c6e" style="fill:#DAEB00"/><path d="m25 20v-5 22h-4v-22 4-4l2-2 2 2" fill="#c66b60" data-original="#C66B60" class="" data-old_color="#c66b60" style="fill:#F59400"/><path d="m18 12 3 3 2-2 2 2 3-3-5-10z" fill="#efbe9a" data-original="#EFBE9A" class=""/><path d="m26.5 9-3.5-7-3.5 7z" fill="#4d5d7a" data-original="#4D5D7A" class="" data-old_color="#4d5d7a" style="fill:#FFFFFF"/><path d="m12 44v12l20 6 20-6v-12" fill="#3d98f7" data-original="#3D98F7" class="active-path" data-old_color="#3d98f7" style="fill:#FFFFFF"/><path d="m2 41 30 11 30-11-30-11z" fill="#2b74ca" data-original="#2B74CA" class="" data-old_color="#2b74ca" style="fill:#FFFFFF"/><path d="m59 54h-2c-1.105 0-2 .895-2 2v4c0 1.105.895 2 2 2h2c1.105 0 2-.895 2-2v-4c0-1.105-.895-2-2-2z" fill="#2b74ca" data-original="#2B74CA" class="" data-old_color="#2b74ca" style="fill:#FFFFFF"/><ellipse cx="32" cy="41" fill="#3d98f7" rx="4" ry="2" data-original="#3D98F7" class="active-path" data-old_color="#3d98f7" style="fill:#FFFFFF"/><g><path d="m36 5h5v2h-5z" fill="#8892a0" data-original="#8892A0" class="" style="fill:#FFFFFF" data-old_color="#8892a0"/></g><g><path d="m36 9h7v2h-7z" fill="#8892a0" data-original="#8892A0" class="" style="fill:#FFFFFF" data-old_color="#8892a0"/></g><g><path d="m36 13h5v2h-5z" fill="#8892a0" data-original="#8892A0" class="" style="fill:#FFFFFF" data-old_color="#8892a0"/></g><g><path d="m36 17h7v2h-7z" fill="#8892a0" data-original="#8892A0" class="" style="fill:#FFFFFF" data-old_color="#8892a0"/></g><g><path d="m36 21h5v2h-5z" fill="#8892a0" data-original="#8892A0" class="" style="fill:#FFFFFF" data-old_color="#8892a0"/></g><g><path d="m36 25h7v2h-7z" fill="#8892a0" data-original="#8892A0" class="" style="fill:#FFFFFF" data-old_color="#8892a0"/></g></g></g> </svg>
