<svg width="64" height="64" xmlns="http://www.w3.org/2000/svg">

 <g>
  <title>background</title>
  <rect fill="none" id="canvas_background" height="402" width="582" y="-1" x="-1"/>
 </g>
 <g>
  <title>Layer 1</title>
  <path fill="#ff0000" id="svg_1" d="m62.368,9.522168c1.384,1.344 1.415,3.552 0.072,4.935l-47.005,48.408c-1.344,1.384 -3.552,1.417 -4.935,0.073l-8.868,-8.611c-1.383,-1.343 -1.416,-3.551 -0.072,-4.935l47.005,-48.408c1.343,-1.383 3.553,-1.415 4.936,-0.072l8.867,8.61z"/>
  <path fill="#ff0000" id="svg_2" d="m63.014,53.501c1.344,-1.385 1.311,-3.593 -0.073,-4.936l-48.409,-47.005c-1.383,-1.343 -3.591,-1.312 -4.935,0.073l-8.611,8.867c-1.343,1.383 -1.311,3.592 0.072,4.936l48.41,47.004c1.384,1.343 3.592,1.311 4.935,-0.072l8.611,-8.867z"/>
 </g>
</svg>