<svg width="30" height="30" xmlns="http://www.w3.org/2000/svg">

 <g>
  <title>background</title>
  <rect fill="none" id="canvas_background" height="402" width="582" y="-1" x="-1"/>
 </g>
 <g>
  <title>Layer 1</title>
  <path id="svg_2" fill="#ffffff" d="m28.595,7.562l-5.438,-6.309l-1.078,-1.25l-12.851,0c-1.727,0 -3.124,1.397 -3.124,3.124l0,3.971l1.936,0l-0.001,-3.21c0.004,-0.971 0.784,-1.756 1.752,-1.756l10.994,-0.01l0,5.208c0.001,1.939 1.567,3.51 3.507,3.51l3.807,0l-0.189,15.02c-0.004,0.967 -0.784,1.747 -1.752,1.754l-16.506,-0.008c-0.883,0 -1.594,-0.866 -1.6,-1.935l0,-1.271l-1.938,0l0,1.896c0,1.907 1.277,3.455 2.845,3.455l17.763,-0.005c1.726,0 3.124,-1.404 3.124,-3.126l0,-17.604l-1.251,-1.454"/>
  <path id="svg_3" fill="#ffffff" d="m20.145,25.368l-20.145,0l0,-19.239l20.145,0l0,19.239m-18.211,-1.936l16.274,0l0,-15.367l-16.274,0"/>
  <path id="svg_4" stroke-width="0.75" stroke-miterlimit="10" stroke-linejoin="round" stroke="#ffffff" fill="none" d="m10.314,9.069c0.305,0.141 0.242,0.328 0.148,1.201c-0.097,0.905 -0.414,2.554 -1.032,4.173c-0.616,1.622 -1.529,3.21 -2.325,4.39c-0.797,1.178 -1.478,1.943 -1.998,2.386c-0.519,0.441 -0.882,0.559 -1.115,0.599c-0.233,0.04 -0.339,0 -0.405,-0.117c-0.063,-0.118 -0.084,-0.315 -0.031,-0.551c0.053,-0.234 0.181,-0.51 0.542,-0.863c0.36,-0.354 0.956,-0.785 1.785,-1.188c0.829,-0.402 1.891,-0.775 2.762,-1.031s1.551,-0.393 2.146,-0.5c0.595,-0.108 1.104,-0.187 1.604,-0.226c0.5,-0.04 0.988,-0.04 1.467,0c0.478,0.039 0.945,0.117 1.348,0.216c0.406,0.097 0.745,0.217 1.042,0.402c0.299,0.187 0.552,0.441 0.681,0.726c0.127,0.286 0.127,0.6 0.021,0.825c-0.105,0.227 -0.318,0.364 -0.563,0.441c-0.246,0.08 -0.522,0.099 -0.851,0c-0.33,-0.098 -0.712,-0.314 -1.115,-0.599c-0.404,-0.284 -0.829,-0.638 -1.381,-1.187c-0.553,-0.551 -1.232,-1.298 -1.807,-2.023c-0.573,-0.727 -1.041,-1.434 -1.358,-2.033c-0.319,-0.599 -0.489,-1.09 -0.627,-1.582c-0.138,-0.491 -0.244,-0.98 -0.287,-1.422c-0.043,-0.443 -0.021,-0.837 0.021,-1.149c0.042,-0.315 0.106,-0.55 0.213,-0.708c0.106,-0.157 0.256,-0.235 0.362,-0.275s0.169,-0.04 0.234,-0.049c0.063,-0.009 0.126,-0.029 0.222,0c0.094,0.03 0.216,0.104 0.34,0.18"/>
 </g>
</svg>