<svg width="512" height="512" xmlns="http://www.w3.org/2000/svg">

 <g>
  <title>background</title>
  <rect fill="none" id="canvas_background" height="402" width="582" y="-1" x="-1"/>
 </g>
 <g>
  <title>Layer 1</title>
  <path id="svg_3" fill="#ffffff" d="m479.689,91.527l-208.777,0c-8.23,0 -14.91,6.697 -14.91,14.952l0,299.061c0,8.255 6.68,14.953 14.91,14.953l208.777,0c8.234,0 14.914,-6.698 14.914,-14.953l0,-299.061c0.001,-8.255 -6.679,-14.952 -14.914,-14.952l0,0zm0,0"/>
  <path id="svg_4" fill="#F97E00" d="m420.039,360.683l-149.127,0c-8.23,0 -14.91,-6.698 -14.91,-14.953s6.68,-14.954 14.91,-14.954l149.127,0c8.229,0 14.91,6.699 14.91,14.954s-6.681,14.953 -14.91,14.953l0,0zm0,0"/>
  <path id="svg_5" fill="#F97E00" d="m345.475,151.339c-41.188,0 -74.563,33.464 -74.563,74.762c0,41.306 33.375,74.766 74.563,74.766c41.189,0 74.564,-33.46 74.564,-74.766l-74.564,0l0,-74.762zm0,0"/>
  <path id="svg_6" fill="#F97E00" d="m375.299,121.431l0,74.767l74.563,0c-0.001,-41.302 -33.37,-74.767 -74.563,-74.767l0,0zm0,0"/>
  <path id="svg_7" fill="#ffffff" d="m280.428,35.153c-3.404,-2.841 -7.967,-4.069 -12.26,-3.168l-238.602,44.855c-7.068,1.322 -12.169,7.481 -12.169,14.687l0,328.966c0,7.177 5.101,13.364 12.169,14.688l238.602,44.856c0.893,0.177 1.818,0.271 2.744,0.271c3.459,0 6.828,-1.199 9.516,-3.445c3.432,-2.836 5.393,-7.083 5.393,-11.512l0,-418.68c-0.001,-4.458 -1.962,-8.676 -5.393,-11.518l0,0zm0,0"/>
  <path id="svg_8" fill="#f56f00" d="m121.789,360.683c-8.232,0 -14.916,-6.698 -14.916,-14.953l0,-149.533c0,-8.255 6.684,-14.953 14.916,-14.953l44.737,0c32.896,0 59.648,26.826 59.648,59.813c0,32.985 -26.752,59.81 -59.648,59.81l-29.827,0l0,44.863c0,8.254 -6.685,14.953 -14.91,14.953l0,0zm14.91,-89.72l29.827,0c16.435,0 29.826,-13.431 29.826,-29.906c0,-16.479 -13.391,-29.903 -29.826,-29.903l-29.827,0l0,59.809zm0,0"/>
 </g>
</svg>